<svg width="34" height="35" viewBox="0 0 34 35" fill="none" xmlns="http://www.w3.org/2000/svg">
<path d="M13.125 27.7083C5.83332 29.8958 5.83332 24.0624 2.91666 23.3333M23.3333 32.0833V26.4395C23.388 25.7441 23.2941 25.0451 23.0577 24.3888C22.8214 23.7325 22.448 23.1341 21.9625 22.6333C26.5417 22.1228 31.3542 20.3874 31.3542 12.4249C31.3538 10.3888 30.5706 8.43084 29.1667 6.95618C29.8314 5.17483 29.7844 3.20586 29.0354 1.45826C29.0354 1.45826 27.3146 0.947846 23.3333 3.6166C19.9908 2.71071 16.4675 2.71071 13.125 3.6166C9.14374 0.947846 7.42291 1.45826 7.42291 1.45826C6.67387 3.20586 6.62687 5.17483 7.29166 6.95618C5.87726 8.44178 5.09325 10.4175 5.10416 12.4687C5.10416 20.3728 9.91666 22.1083 14.4958 22.677C14.016 23.1728 13.646 23.7641 13.4098 24.4123C13.1736 25.0606 13.0766 25.7513 13.125 26.4395V32.0833" stroke="#1E1E1E" stroke-width="4" stroke-linecap="round" stroke-linejoin="round"/>
</svg>
