<svg width="35" height="35" viewBox="0 0 35 35" fill="none" xmlns="http://www.w3.org/2000/svg">
<path d="M25.5208 9.47925H25.5354M10.2083 2.91675H24.7917C28.8187 2.91675 32.0833 6.18134 32.0833 10.2084V24.7917C32.0833 28.8188 28.8187 32.0834 24.7917 32.0834H10.2083C6.18125 32.0834 2.91666 28.8188 2.91666 24.7917V10.2084C2.91666 6.18134 6.18125 2.91675 10.2083 2.91675ZM23.3333 16.5813C23.5133 17.795 23.306 19.0346 22.7409 20.1236C22.1758 21.2127 21.2817 22.0959 20.1857 22.6475C19.0897 23.1992 17.8477 23.3912 16.6363 23.1962C15.425 23.0013 14.3059 22.4294 13.4383 21.5618C12.5707 20.6942 11.9988 19.5751 11.8038 18.3637C11.6089 17.1523 11.8009 15.9103 12.3525 14.8144C12.9042 13.7184 13.7873 12.8243 14.8764 12.2592C15.9655 11.6941 17.205 11.4868 18.4187 11.6667C19.6568 11.8503 20.8029 12.4272 21.6879 13.3122C22.5729 14.1972 23.1497 15.3433 23.3333 16.5813Z" stroke="#1E1E1E" stroke-width="4" stroke-linecap="round" stroke-linejoin="round"/>
</svg>
