<svg width="35" height="33" viewBox="0 0 35 33" fill="none" xmlns="http://www.w3.org/2000/svg">
<path d="M23.3333 11.6667C25.654 11.6667 27.8796 12.5886 29.5205 14.2296C31.1615 15.8705 32.0833 18.0961 32.0833 20.4167V30.6251H26.25V20.4167C26.25 19.6432 25.9427 18.9013 25.3957 18.3544C24.8487 17.8074 24.1069 17.5001 23.3333 17.5001C22.5598 17.5001 21.8179 17.8074 21.2709 18.3544C20.7239 18.9013 20.4167 19.6432 20.4167 20.4167V30.6251H14.5833V20.4167C14.5833 18.0961 15.5052 15.8705 17.1461 14.2296C18.7871 12.5886 21.0127 11.6667 23.3333 11.6667Z" stroke="#1E1E1E" stroke-width="4" stroke-linecap="round" stroke-linejoin="round"/>
<path d="M8.74999 13.1251H2.91666V30.6251H8.74999V13.1251Z" stroke="#1E1E1E" stroke-width="4" stroke-linecap="round" stroke-linejoin="round"/>
<path d="M5.83332 8.75008C7.44415 8.75008 8.74999 7.44425 8.74999 5.83341C8.74999 4.22258 7.44415 2.91675 5.83332 2.91675C4.22249 2.91675 2.91666 4.22258 2.91666 5.83341C2.91666 7.44425 4.22249 8.75008 5.83332 8.75008Z" stroke="#1E1E1E" stroke-width="4" stroke-linecap="round" stroke-linejoin="round"/>
</svg>
